<svg xmlns="http://www.w3.org/2000/svg" viewBox="0 0 512 512">
  <defs>
    <linearGradient id="grad" x1="0%" y1="0%" x2="100%" y2="100%">
      <stop offset="0%" style="stop-color:#fb923c;stop-opacity:1" />
      <stop offset="100%" style="stop-color:#ea580c;stop-opacity:1" />
    </linearGradient>
  </defs>
  <rect x="0" y="0" width="512" height="512" rx="128" ry="128" fill="url(#grad)" />
  <g transform="translate(106, 106) scale(1.2)" fill="none" stroke="white" stroke-width="24" stroke-linecap="round" stroke-linejoin="round">
    <path d="M70 200V50c0-15 10-25 25-25s25 10 25 25v150" />
    <path d="M70 50h50" />
    <line x1="95" y1="200" x2="95" y2="300" />
    <path d="M200 300V50c0-10-10-20-20-20s-20 10-20 20v250" />
    <line x1="180" y1="130" x2="180" y2="300" />
    <path d="M138 120c0-20 15-30 30-30s30 15 30 35c0 20-25 30-25 50" stroke="#fff" stroke-width="32" />
    <circle cx="173" cy="220" r="16" fill="white" stroke="none" />
  </g>
</svg>